<?xml version="1.0" encoding="UTF-8" standalone="no"?>
<svg
   xmlns:dc="http://purl.org/dc/elements/1.1/"
   xmlns:cc="http://creativecommons.org/ns#"
   xmlns:rdf="http://www.w3.org/1999/02/22-rdf-syntax-ns#"
   xmlns:svg="http://www.w3.org/2000/svg"
   xmlns="http://www.w3.org/2000/svg"
   viewBox="0 0 2560 1440"
   height="1440"
   width="2560"
   xml:space="preserve"
   id="svg2"
   version="1.1"><metadata
     id="metadata8"><rdf:RDF><cc:Work
         rdf:about=""><dc:format>image/svg+xml</dc:format><dc:type
           rdf:resource="http://purl.org/dc/dcmitype/StillImage" /></cc:Work></rdf:RDF></metadata><defs
     id="defs6"><clipPath
       id="clipPath18"
       clipPathUnits="userSpaceOnUse"><path
         id="path16"
         d="M 0,1080 H 1920 V 0 H 0 Z" /></clipPath></defs><g
     transform="matrix(1.3333333,0,0,-1.3333333,0,1440)"
     id="g10"><g
       id="g12"><g
         clip-path="url(#clipPath18)"
         id="g14"><g
           transform="translate(1020.4423,720.799)"
           id="g20"><path
             id="path22"
             style="fill:#002d5d;fill-opacity:1;fill-rule:nonzero;stroke:none"
             d="M 0,0 C 0,0 1.667,29.166 15.97,47.944 30.285,66.696 45.331,68.745 58.519,62.986 71.719,57.229 74.313,38.827 64.46,27.121 54.63,15.417 38.089,19.501 36.603,19.874 35.119,20.253 17.083,23.786 9.098,12.269 1.113,0.742 0,-12.268 0,-12.268" /></g><g
           transform="translate(1020.4423,720.799)"
           id="g24"><path
             id="path26"
             style="fill:#002d5d;fill-opacity:1;fill-rule:nonzero;stroke:none"
             d="m 0,0 c 0,0 -1.673,29.166 -15.987,47.944 -14.304,18.752 -29.354,20.801 -42.547,15.042 -13.185,-5.757 -15.795,-24.159 -5.945,-35.865 9.849,-11.704 26.385,-7.62 27.869,-7.247 1.491,0.379 19.501,3.912 27.495,-7.605 C -1.122,0.742 0,-12.268 0,-12.268" /></g><g
           transform="translate(1020.6174,692.5217)"
           id="g28"><path
             id="path30"
             style="fill:#002d5d;fill-opacity:1;fill-rule:nonzero;stroke:none"
             d="m 0,0 c 0,0 -3.344,34.384 -30.288,39.581 -26.931,5.204 -43.655,-7.809 -46.064,-21.924 -2.423,-14.121 8.656,-34.151 32.327,-25.649 9.278,3.351 14.486,16.167 14.486,16.167 0,0 2.606,9.852 12.45,9.109 C -7.244,16.547 -4.454,8.554 0,-15.975 4.469,8.554 7.256,16.547 17.095,17.284 c 9.853,0.743 12.45,-9.109 12.45,-9.109 0,0 5.206,-12.816 14.494,-16.167 23.663,-8.502 34.74,11.528 32.332,25.649 C 73.957,31.772 57.23,44.785 30.288,39.581 3.358,34.384 0,0 0,0" /></g><g
           transform="translate(1020.6119,741.8149)"
           id="g32"><path
             id="path34"
             style="fill:#002d5d;fill-opacity:1;fill-rule:nonzero;stroke:none"
             d="m 0,0 c 0,0 -2.796,26.841 -14.494,42.824 -11.713,15.983 -13.59,28.404 -3.16,40.504 6.865,7.991 17.462,7.577 17.462,7.577 h 0.367 c 0,0 10.594,0.414 17.468,-7.577 10.41,-12.1 8.544,-24.521 -3.146,-40.504 C 2.776,26.841 0,0 0,0" /></g><g
           transform="translate(785.3472,648.1489)"
           id="g36"><path
             id="path38"
             style="fill:#002d5d;fill-opacity:1;fill-rule:nonzero;stroke:none"
             d="m 0,0 h 7.151 v -32.562 h 0.218 c 2.618,7.024 10.445,11.795 18.728,11.795 16.455,0 21.45,-8.624 21.45,-22.58 v -37.676 h -7.148 v 36.536 c 0,10.104 -3.29,17.705 -14.868,17.705 -11.341,0 -18.162,-8.624 -18.38,-20.082 V -81.023 H 0 Z" /></g><g
           transform="translate(847.1959,596.4064)"
           id="g40"><path
             id="path42"
             style="fill:#002d5d;fill-opacity:1;fill-rule:nonzero;stroke:none"
             d="m 0,0 c 0,-12.48 6.8,-24.959 20.539,-24.959 13.722,0 20.539,12.479 20.539,24.959 0,12.48 -6.817,24.96 -20.539,24.96 C 6.8,24.96 0,12.48 0,0 m 48.224,0 c 0,-16.796 -9.763,-30.977 -27.685,-30.977 -17.936,0 -27.699,14.181 -27.699,30.977 0,16.792 9.763,30.975 27.699,30.975 17.922,0 27.685,-14.183 27.685,-30.975" /></g><g
           transform="translate(911.2067,625.6799)"
           id="g44"><path
             id="path46"
             style="fill:#002d5d;fill-opacity:1;fill-rule:nonzero;stroke:none"
             d="M 0,0 H 11.916 V -6.015 H 0 V -45.5 c 0,-4.658 0.677,-7.38 5.781,-7.728 2.038,0 4.089,0.122 6.135,0.348 v -6.127 c -2.163,0 -4.2,-0.22 -6.361,-0.22 -9.533,0 -12.822,3.171 -12.712,13.157 V -6.015 H -17.362 V 0 H -7.157 V 17.586 H 0 Z" /></g><g
           transform="translate(967.6243,600.4906)"
           id="g48"><path
             id="path50"
             style="fill:#002d5d;fill-opacity:1;fill-rule:nonzero;stroke:none"
             d="M 0,0 C -0.342,10.777 -7.035,20.876 -18.607,20.876 -30.295,20.876 -36.768,10.664 -37.903,0 Z m -37.903,-6.015 c 0.116,-10.438 5.558,-23.028 19.296,-23.028 10.436,0 16.111,6.118 18.381,14.976 h 7.148 c -3.067,-13.285 -10.784,-20.994 -25.529,-20.994 -18.612,0 -26.447,14.298 -26.447,30.977 0,15.432 7.835,30.975 26.447,30.975 18.833,0 26.325,-16.453 25.749,-32.906 z" /></g><path
           id="path52"
           style="fill:#002d5d;fill-opacity:1;fill-rule:nonzero;stroke:none"
           d="m 982.233,648.149 h 7.149 v -81.023 h -7.149 z" /><g
           transform="translate(1027.7404,625.6799)"
           id="g54"><path
             id="path56"
             style="fill:#002d5d;fill-opacity:1;fill-rule:nonzero;stroke:none"
             d="m 0,0 h 7.142 v -10.093 h 0.227 c 2.617,7.024 10.446,11.795 18.728,11.795 16.458,0 21.452,-8.624 21.452,-22.58 v -37.676 h -7.15 v 36.536 c 0,10.104 -3.293,17.705 -14.868,17.705 -11.345,0 -18.162,-8.624 -18.389,-20.082 V -58.554 H 0 Z" /></g><path
           id="path58"
           style="fill:#002d5d;fill-opacity:1;fill-rule:nonzero;stroke:none"
           d="m 1085.493,567.126 h 7.151 v 58.554 h -7.151 z m 0,69.566 h 7.151 v 11.457 h -7.151 z" /><g
           transform="translate(1102.9749,648.1489)"
           id="g60"><path
             id="path62"
             style="fill:#002d5d;fill-opacity:1;fill-rule:nonzero;stroke:none"
             d="m 0,0 h 7.148 v -50.835 l 32.448,28.366 h 9.536 L 24.172,-44.142 50.837,-81.023 H 41.874 L 18.725,-49.134 7.148,-58.778 V -81.023 H 0 Z" /></g><g
           transform="translate(1156.3075,648.1489)"
           id="g64"><path
             id="path66"
             style="fill:#002d5d;fill-opacity:1;fill-rule:nonzero;stroke:none"
             d="m 0,0 h 7.148 v -50.835 l 32.453,28.366 h 9.534 L 24.166,-44.142 50.839,-81.023 H 41.88 L 18.728,-49.134 7.148,-58.778 V -81.023 H 0 Z" /></g><g
           transform="translate(1212.735,596.4064)"
           id="g68"><path
             id="path70"
             style="fill:#002d5d;fill-opacity:1;fill-rule:nonzero;stroke:none"
             d="m 0,0 c 0,-12.48 6.806,-24.959 20.537,-24.959 13.728,0 20.545,12.479 20.545,24.959 0,12.48 -6.817,24.96 -20.545,24.96 C 6.806,24.96 0,12.48 0,0 m 48.225,0 c 0,-16.796 -9.766,-30.977 -27.688,-30.977 -17.931,0 -27.688,14.181 -27.688,30.977 0,16.792 9.757,30.975 27.688,30.975 17.922,0 27.688,-14.183 27.688,-30.975" /></g><g
           transform="translate(811.5613,513.3211)"
           id="g72"><path
             id="path74"
             style="fill:#002d5d;fill-opacity:1;fill-rule:nonzero;stroke:none"
             d="m 0,0 c -0.269,7.049 -5.697,10.212 -12.203,10.212 -5.061,0 -11.026,-1.987 -11.026,-8.044 0,-5.062 5.78,-6.871 9.663,-7.869 l 7.597,-1.704 c 6.512,-1.006 13.291,-4.788 13.291,-12.94 0,-10.119 -10.035,-14.002 -18.714,-14.002 -10.847,0 -18.258,5.065 -19.168,16.45 h 5.703 c 0.448,-7.682 6.144,-11.659 13.742,-11.659 5.329,0 12.742,2.348 12.742,8.861 0,5.421 -5.064,7.227 -10.215,8.502 l -7.322,1.616 c -7.414,1.99 -13.02,4.52 -13.02,12.474 0,9.491 9.313,13.106 17.538,13.106 9.31,0 16.721,-4.876 17.085,-15.003 z" /></g><g
           transform="translate(856.0102,505.8141)"
           id="g76"><path
             id="path78"
             style="fill:#002d5d;fill-opacity:1;fill-rule:nonzero;stroke:none"
             d="m 0,0 h -0.179 c -0.721,-1.346 -3.254,-1.803 -4.794,-2.078 -9.668,-1.715 -21.686,-1.625 -21.686,-10.76 0,-5.69 5.056,-9.211 10.393,-9.211 8.674,0 16.364,5.508 16.266,14.641 z m -30.372,6.874 c 0.549,10.938 8.225,15.636 18.899,15.636 8.221,0 17.172,-2.53 17.172,-15.003 L 6.01,-17.258 c 0.601,-6.289 0.829,-8.062 0.829,-8.062 l -5.338,-0.392 c 0,0 -0.574,0.627 -1.05,5.574 l -0.18,1.39 c -3.972,-6.054 -8.042,-8.092 -16.992,-8.092 -8.59,0 -15.639,4.245 -15.639,13.652 0,13.103 12.746,13.555 25.042,14.994 C -2.619,2.354 0,2.982 0,8.14 c 0,7.685 -5.509,9.579 -12.202,9.579 -7.046,0 -12.295,-3.253 -12.47,-10.845 z" /></g><g
           transform="translate(870.2964,526.97)"
           id="g80"><path
             id="path82"
             style="fill:#002d5d;fill-opacity:1;fill-rule:nonzero;stroke:none"
             d="m 0,0 h 5.69 v -8.041 h 0.186 c 2.079,5.593 8.314,9.395 14.913,9.395 13.106,0 17.081,-6.868 17.081,-17.988 v -30.011 h -5.689 v 29.104 c 0,8.05 -2.619,14.104 -11.843,14.104 -9.039,0 -14.462,-6.868 -14.648,-15.998 v -27.21 H 0 Z" /></g><g
           transform="translate(956.6237,522.1765)"
           id="g84"><path
             id="path86"
             style="fill:#002d5d;fill-opacity:1;fill-rule:nonzero;stroke:none"
             d="m 0,0 h -9.221 v -41.851 h -5.701 V 0 h -7.95 v 4.794 h 7.95 v 4.251 c -0.084,8.047 2.175,13.646 11.306,13.646 1.628,0 2.983,-0.088 4.79,-0.359 V 17.456 C -0.368,17.722 -1.628,17.9 -2.985,17.9 -9.32,17.9 -9.129,13.926 -9.221,8.858 V 4.794 l 9.221,0 z" /></g><g
           transform="translate(959.3328,526.97)"
           id="g88"><path
             id="path90"
             style="fill:#002d5d;fill-opacity:1;fill-rule:nonzero;stroke:none"
             d="m 0,0 h 5.244 v -10.938 h 0.18 C 8.316,-3.437 14.644,0.995 23.051,0.63 V -5.059 C 12.744,-4.517 5.69,-12.114 5.69,-21.783 V -46.645 H 0 Z" /></g><g
           transform="translate(1028.3281,526.97)"
           id="g92"><path
             id="path94"
             style="fill:#002d5d;fill-opacity:1;fill-rule:nonzero;stroke:none"
             d="m 0,0 h 5.684 v -8.041 h 0.181 c 2.086,5.593 8.318,9.395 14.918,9.395 13.109,0 17.089,-6.868 17.089,-17.988 v -30.011 h -5.695 v 29.104 c 0,8.05 -2.627,14.104 -11.843,14.104 -9.042,0 -14.469,-6.868 -14.65,-15.998 v -27.21 H 0 Z" /></g><g
           transform="translate(1107.1497,512.3263)"
           id="g96"><path
             id="path98"
             style="fill:#002d5d;fill-opacity:1;fill-rule:nonzero;stroke:none"
             d="m 0,0 c -1.538,6.961 -5.786,11.207 -13.194,11.207 -10.941,0 -16.362,-9.944 -16.362,-19.884 0,-9.938 5.421,-19.884 16.362,-19.884 7.046,0 12.835,5.508 13.55,13.287 h 5.692 c -1.534,-11.213 -8.852,-18.078 -19.242,-18.078 -14.29,0 -22.066,11.294 -22.066,24.675 0,13.377 7.776,24.675 22.066,24.675 9.932,0 17.623,-5.331 18.887,-15.998 z" /></g><path
           id="path100"
           style="fill:#002d5d;fill-opacity:1;fill-rule:nonzero;stroke:none"
           d="m 1118.537,526.97 h 5.69 v -46.645 h -5.69 z m 0,17.897 h 5.69 v -9.127 h -5.69 z" /><g
           transform="translate(1161.7343,513.3211)"
           id="g102"><path
             id="path104"
             style="fill:#002d5d;fill-opacity:1;fill-rule:nonzero;stroke:none"
             d="m 0,0 c -0.266,7.049 -5.692,10.212 -12.205,10.212 -5.056,0 -11.023,-1.987 -11.023,-8.044 0,-5.062 5.78,-6.871 9.669,-7.869 l 7.59,-1.704 c 6.512,-1.006 13.29,-4.788 13.29,-12.94 0,-10.119 -10.026,-14.002 -18.717,-14.002 -10.843,0 -18.257,5.065 -19.158,16.45 h 5.695 c 0.455,-7.682 6.142,-11.659 13.74,-11.659 5.33,0 12.747,2.348 12.747,8.861 0,5.421 -5.065,7.227 -10.215,8.502 l -7.323,1.616 c -7.414,1.99 -13.022,4.52 -13.022,12.474 0,9.491 9.322,13.106 17.536,13.106 9.321,0 16.729,-4.876 17.089,-15.003 z" /></g><g
           transform="translate(1207.4691,512.3263)"
           id="g106"><path
             id="path108"
             style="fill:#002d5d;fill-opacity:1;fill-rule:nonzero;stroke:none"
             d="m 0,0 c -1.535,6.961 -5.78,11.207 -13.197,11.207 -10.938,0 -16.356,-9.944 -16.356,-19.884 0,-9.938 5.418,-19.884 16.356,-19.884 7.055,0 12.832,5.508 13.565,13.287 h 5.695 c -1.541,-11.213 -8.867,-18.078 -19.26,-18.078 -14.276,0 -22.049,11.294 -22.049,24.675 0,13.377 7.773,24.675 22.049,24.675 C -3.25,15.998 4.429,10.667 5.698,0 Z" /></g><g
           transform="translate(1222.1215,503.6489)"
           id="g110"><path
             id="path112"
             style="fill:#002d5d;fill-opacity:1;fill-rule:nonzero;stroke:none"
             d="m 0,0 c 0,-9.938 5.421,-19.884 16.351,-19.884 10.944,0 16.365,9.946 16.365,19.884 0,9.941 -5.421,19.884 -16.365,19.884 C 5.421,19.884 0,9.941 0,0 m 38.415,0 c 0,-13.38 -7.776,-24.675 -22.064,-24.675 -14.279,0 -22.049,11.295 -22.049,24.675 0,13.378 7.77,24.675 22.049,24.675 14.288,0 22.064,-11.297 22.064,-24.675" /></g><g
           transform="translate(1014.0685,505.749)"
           id="g114"><path
             id="path116"
             style="fill:#002d5d;fill-opacity:1;fill-rule:nonzero;stroke:none"
             d="m 0,0 h -0.181 c -0.715,-1.351 -3.247,-1.809 -4.791,-2.078 -9.669,-1.715 -21.683,-1.628 -21.683,-10.76 0,-5.69 5.055,-9.217 10.395,-9.217 8.674,0 16.356,5.512 16.26,14.647 z m -30.37,6.874 c 0.552,10.938 8.227,15.642 18.898,15.642 8.225,0 17.173,-2.536 17.173,-15.009 l 0.314,-24.771 c 0.599,-6.286 0.828,-8.058 0.828,-8.058 l -5.339,-0.39 c 0,0 -0.577,0.624 -1.049,5.574 l -0.178,1.396 c -3.98,-6.063 -8.044,-8.104 -16.995,-8.104 -8.587,0 -15.639,4.249 -15.639,13.658 0,13.1 12.744,13.556 25.042,14.994 C -2.62,2.352 0,2.987 0,8.137 c 0,7.683 -5.506,9.588 -12.196,9.588 -7.046,0 -12.289,-3.256 -12.47,-10.851 z" /></g></g></g></g></svg>